<svg width="312" height="227" viewBox="0 0 312 227" fill="none" xmlns="http://www.w3.org/2000/svg">
<g clip-path="url(#clip0_0_1)">
<path d="M312 121.985L285.858 102.946C285.858 102.946 270.884 77.5616 268.346 61.3154C265.808 45.0693 254.387 16.1308 254.387 16.1308V0.900063C254.387 0.900063 241.189 -4.17686 240.173 9.78468C239.158 23.7462 242.965 41.7693 242.965 41.7693C242.965 41.7693 246.772 64.6154 238.143 70.4539L206.671 121.985C206.671 121.985 236.874 149.654 260.478 153.208L312 189V121.985Z" fill="#FFB8B8"/>
<path d="M176.088 49.0039H175.226C167.462 49.0039 163.098 58.1717 168.2 64.0254C169.842 65.9095 172.337 67.2138 176.088 67.2808V49.0039Z" fill="#FFB8B8"/>
<path d="M176.088 67.2808H175.226C167.462 67.2808 163.098 76.4486 168.2 82.3023C169.842 84.1863 172.337 85.4907 176.088 85.5577V67.2808Z" fill="#FFB8B8"/>
<path d="M176.088 85.5576H175.226C167.462 85.5576 163.098 94.7254 168.2 100.579C169.842 102.463 172.337 103.768 176.088 103.835V85.5576Z" fill="#FFB8B8"/>
<path d="M176.088 103.834H175.226C167.462 103.834 163.098 113.002 168.2 118.856C169.842 120.74 172.337 122.044 176.088 122.111V103.834Z" fill="#FFB8B8"/>
<path d="M243.473 44.6401H242.718V23.9444C242.718 22.3714 242.408 20.8138 241.806 19.3606C241.204 17.9073 240.322 16.5869 239.21 15.4746C238.098 14.3623 236.778 13.48 235.325 12.8781C233.872 12.2761 232.314 11.9663 230.742 11.9663H186.902C185.33 11.9663 183.772 12.2761 182.319 12.8781C180.866 13.48 179.546 14.3623 178.434 15.4746C177.322 16.5869 176.44 17.9073 175.838 19.3606C175.236 20.8138 174.926 22.3714 174.926 23.9444V137.483C174.926 139.056 175.236 140.613 175.838 142.066C176.44 143.52 177.322 144.84 178.434 145.952C179.546 147.065 180.866 147.947 182.319 148.549C183.772 149.151 185.33 149.461 186.902 149.461H230.742C232.314 149.461 233.872 149.151 235.325 148.549C236.778 147.947 238.098 147.065 239.21 145.952C240.322 144.84 241.204 143.52 241.806 142.066C242.408 140.613 242.718 139.056 242.718 137.483V59.3717H243.473V44.6401Z" fill="#3F3D56"/>
<path d="M240.168 24.028V137.398C240.166 138.724 239.871 140.033 239.303 141.231C238.735 142.43 237.909 143.487 236.884 144.328C236.657 144.514 236.421 144.688 236.176 144.849C234.71 145.826 232.986 146.346 231.224 146.344H187.174C186.46 146.345 185.748 146.26 185.055 146.09C183.108 145.615 181.377 144.5 180.14 142.924C178.902 141.348 178.23 139.402 178.23 137.398V24.028C178.23 21.6556 179.173 19.3804 180.85 17.7028C182.527 16.0253 184.802 15.0827 187.174 15.0825H192.519C192.256 15.7277 192.155 16.4278 192.227 17.121C192.298 17.8142 192.538 18.4793 192.927 19.0576C193.316 19.636 193.84 20.1098 194.455 20.4374C195.07 20.765 195.756 20.9363 196.453 20.9362H221.567C222.263 20.9355 222.949 20.7636 223.564 20.4359C224.178 20.1081 224.703 19.6344 225.092 19.0564C225.48 18.4783 225.721 17.8137 225.793 17.1208C225.865 16.4279 225.765 15.728 225.503 15.0825H231.224C233.596 15.0827 235.871 16.0253 237.548 17.7028C239.226 19.3804 240.168 21.6556 240.168 24.028Z" fill="#0077C8"/>
<path d="M199.955 100.515C199.955 100.515 204.279 112.529 200.916 119.256C197.553 125.983 206.201 133.672 206.201 133.672C206.201 133.672 228.782 122.139 225.899 116.373C223.017 110.607 218.212 102.918 219.173 98.1128L199.955 100.515Z" fill="#FFB8B8"/>
<path d="M208.363 105.081C216.854 105.081 223.738 98.196 223.738 89.7036C223.738 81.2111 216.854 74.3267 208.363 74.3267C199.872 74.3267 192.989 81.2111 192.989 89.7036C192.989 98.196 199.872 105.081 208.363 105.081Z" fill="#FFB8B8"/>
<path d="M238.255 143.661C237.851 144.177 237.391 144.647 236.884 145.062C236.658 145.248 236.421 145.422 236.176 145.583C234.757 146.527 233.057 146.824 231.225 146.824H192.316L192.989 128.146L197.314 118.535C198.285 119.297 199.324 119.967 200.418 120.538C200.677 120.678 200.951 120.817 201.238 120.954C205.288 122.912 211.91 124.633 218.329 119.84C220.349 118.332 222.349 116.177 224.245 113.182L236.23 119.977L236.859 127.339L238.255 143.661Z" fill="white"/>
<path d="M202.156 111.344L201.555 117.632L201.237 120.954L200.763 125.902L198.735 147.078H187.174C186.46 147.079 185.748 146.994 185.055 146.824L180.497 125.742L180.629 125.656L202.156 111.344Z" fill="#2F2E41"/>
<path d="M240.168 115.664V138.132C240.166 139.458 239.871 140.767 239.303 141.965C238.735 143.164 237.909 144.221 236.884 145.062C236.657 145.248 236.421 145.422 236.176 145.582C234.71 146.56 232.986 147.08 231.224 147.078H215.755C216.092 139.978 216.689 133.048 217.387 127.011C217.686 124.44 218.004 122.031 218.328 119.84C219.374 112.778 220.496 107.983 221.3 107.335L226.62 110.846L240.168 115.664Z" fill="#2F2E41"/>
<path d="M191.547 143.042L190.994 147.078H187.174C186.46 147.079 185.748 146.994 185.055 146.824C183.108 146.349 181.377 145.234 180.14 143.658C178.902 142.082 178.23 140.136 178.23 138.132V137.32L180.017 125.742L180.628 125.656L183.38 125.262L191.547 143.042Z" fill="#2F2E41"/>
<path d="M240.168 118.594V138.132C240.166 139.458 239.871 140.767 239.303 141.966C238.735 143.164 237.909 144.221 236.884 145.062C236.657 145.248 236.421 145.422 236.176 145.583L233.826 135.353L236.859 127.339L240.168 118.594Z" fill="#2F2E41"/>
<path d="M223.024 75.7958C220.699 72.0198 217.06 69.2374 212.807 67.9839L209.684 70.4833L210.898 67.568C209.877 67.4122 208.843 67.3525 207.811 67.3896L205 71.0038L206.163 67.5134C201.307 68.1326 196.69 70.7783 193.892 74.8143C190.314 79.973 189.711 87.1472 193.229 92.3463C194.195 89.3778 195.367 86.5923 196.333 83.6238C196.556 83.7191 197.4 83.7131 198.621 83.635L199.796 80.8927L200.125 83.519C203.767 83.2016 209.169 82.5049 212.621 81.8665L212.286 79.8518L214.294 81.526C215.352 81.2824 215.98 81.0616 215.928 80.8927C218.496 85.0332 221.041 87.6778 223.608 91.8182C224.583 85.978 226.304 81.1234 223.024 75.7958Z" fill="#2F2E41"/>
<path d="M222.173 91.3025C222.747 91.3025 223.213 90.3704 223.213 89.2206C223.213 88.0708 222.747 87.1387 222.173 87.1387C221.598 87.1387 221.132 88.0708 221.132 89.2206C221.132 90.3704 221.598 91.3025 222.173 91.3025Z" fill="#FFB8B8"/>
<path d="M256.036 143.562C266.619 143.562 275.198 124.355 275.198 100.662C275.198 76.9687 266.619 57.7617 256.036 57.7617C245.453 57.7617 236.874 76.9687 236.874 100.662C236.874 124.355 245.453 143.562 256.036 143.562Z" fill="#FFB8B8"/>
<path opacity="0.2" d="M187.119 47.1001C186.115 47.1001 185.133 46.8024 184.298 46.2445C183.464 45.6867 182.813 44.8938 182.429 43.9661C182.045 43.0384 181.944 42.0176 182.14 41.0328C182.336 40.0479 182.819 39.1433 183.529 38.4333C184.239 37.7233 185.144 37.2397 186.128 37.0438C187.113 36.8479 188.134 36.9485 189.061 37.3328C189.989 37.717 190.781 38.3677 191.339 39.2026C191.897 40.0375 192.195 41.0191 192.195 42.0232C192.193 43.3692 191.658 44.6597 190.706 45.6114C189.755 46.5632 188.464 47.0986 187.119 47.1001ZM187.119 37.454C186.215 37.454 185.332 37.722 184.58 38.224C183.829 38.7261 183.244 39.4397 182.898 40.2746C182.552 41.1096 182.462 42.0283 182.638 42.9146C182.814 43.801 183.249 44.6151 183.888 45.2542C184.527 45.8932 185.341 46.3283 186.227 46.5047C187.113 46.681 188.032 46.5905 188.867 46.2446C189.702 45.8988 190.415 45.3131 190.917 44.5617C191.419 43.8103 191.687 42.9269 191.687 42.0232C191.686 40.8118 191.204 39.6504 190.347 38.7938C189.491 37.9372 188.33 37.4553 187.119 37.454Z" fill="black"/>
<path opacity="0.2" d="M185.088 41.5153C185.509 41.5153 185.849 41.1743 185.849 40.7537C185.849 40.3331 185.509 39.9922 185.088 39.9922C184.668 39.9922 184.327 40.3331 184.327 40.7537C184.327 41.1743 184.668 41.5153 185.088 41.5153Z" fill="black"/>
<path opacity="0.2" d="M188.895 41.5153C189.316 41.5153 189.657 41.1743 189.657 40.7537C189.657 40.3331 189.316 39.9922 188.895 39.9922C188.475 39.9922 188.134 40.3331 188.134 40.7537C188.134 41.1743 188.475 41.5153 188.895 41.5153Z" fill="black"/>
<path opacity="0.2" d="M188.895 43.8002H185.088C185.021 43.8002 184.956 43.7734 184.909 43.7258C184.861 43.6782 184.834 43.6136 184.834 43.5463C184.834 43.479 184.861 43.4144 184.909 43.3668C184.956 43.3192 185.021 43.2925 185.088 43.2925H188.895C188.963 43.2925 189.027 43.3192 189.075 43.3668C189.122 43.4144 189.149 43.479 189.149 43.5463C189.149 43.6136 189.122 43.6782 189.075 43.7258C189.027 43.7734 188.963 43.8002 188.895 43.8002Z" fill="black"/>
<path opacity="0.2" d="M231.281 47.1001C230.277 47.1001 229.295 46.8024 228.461 46.2445C227.626 45.6867 226.975 44.8938 226.591 43.9661C226.207 43.0384 226.106 42.0176 226.302 41.0328C226.498 40.0479 226.981 39.1433 227.691 38.4333C228.401 37.7233 229.306 37.2397 230.29 37.0438C231.275 36.8479 232.296 36.9485 233.223 37.3328C234.151 37.717 234.944 38.3677 235.501 39.2026C236.059 40.0375 236.357 41.0191 236.357 42.0232C236.355 43.3692 235.82 44.6597 234.868 45.6115C233.917 46.5632 232.626 47.0986 231.281 47.1001ZM231.281 37.454C230.377 37.454 229.494 37.722 228.743 38.224C227.991 38.7261 227.406 39.4397 227.06 40.2746C226.714 41.1096 226.624 42.0283 226.8 42.9146C226.976 43.801 227.411 44.6151 228.05 45.2542C228.689 45.8932 229.503 46.3283 230.389 46.5047C231.276 46.681 232.194 46.5905 233.029 46.2446C233.864 45.8988 234.577 45.3131 235.079 44.5617C235.581 43.8103 235.849 42.9269 235.849 42.0232C235.848 40.8118 235.366 39.6504 234.51 38.7938C233.653 37.9372 232.492 37.4554 231.281 37.454Z" fill="black"/>
<path opacity="0.2" d="M229.25 41.5153C229.671 41.5153 230.012 41.1743 230.012 40.7537C230.012 40.3331 229.671 39.9922 229.25 39.9922C228.83 39.9922 228.489 40.3331 228.489 40.7537C228.489 41.1743 228.83 41.5153 229.25 41.5153Z" fill="black"/>
<path opacity="0.2" d="M233.057 41.5153C233.478 41.5153 233.819 41.1743 233.819 40.7537C233.819 40.3331 233.478 39.9922 233.057 39.9922C232.637 39.9922 232.296 40.3331 232.296 40.7537C232.296 41.1743 232.637 41.5153 233.057 41.5153Z" fill="black"/>
<path opacity="0.2" d="M233.057 44.3077C233.012 44.3077 232.969 44.296 232.93 44.2738C232.399 43.9368 231.783 43.7579 231.153 43.7579C230.524 43.7579 229.908 43.9368 229.377 44.2738C229.348 44.2906 229.316 44.3014 229.283 44.3058C229.25 44.3102 229.216 44.308 229.184 44.2993C229.151 44.2907 229.121 44.2758 229.095 44.2554C229.068 44.2351 229.046 44.2097 229.029 44.1808C229.013 44.1518 229.002 44.1199 228.998 44.0868C228.993 44.0537 228.996 44.0201 229.004 43.9878C229.013 43.9556 229.028 43.9254 229.049 43.899C229.069 43.8726 229.094 43.8504 229.123 43.8338C229.732 43.4539 230.436 43.2524 231.153 43.2524C231.871 43.2524 232.575 43.4539 233.184 43.8338C233.232 43.8617 233.27 43.9049 233.291 43.9565C233.313 44.0082 233.317 44.0655 233.302 44.1195C233.288 44.1735 233.256 44.2213 233.211 44.2553C233.167 44.2893 233.113 44.3077 233.057 44.3077Z" fill="black"/>
<path d="M209.453 52.3307C207.415 52.3307 205.423 51.7262 203.728 50.5936C202.033 49.4609 200.712 47.8511 199.932 45.9676C199.152 44.0841 198.948 42.0116 199.345 40.0121C199.743 38.0126 200.725 36.1759 202.166 34.7344C203.607 33.2928 205.444 32.3111 207.443 31.9134C209.442 31.5157 211.514 31.7198 213.397 32.5C215.281 33.2801 216.89 34.6013 218.023 36.2964C219.155 37.9915 219.759 39.9844 219.759 42.023C219.756 44.7558 218.669 47.3758 216.737 49.3082C214.805 51.2406 212.186 52.3276 209.453 52.3307ZM209.453 32.7461C207.619 32.7461 205.826 33.2902 204.3 34.3095C202.775 35.3289 201.586 36.7778 200.884 38.4729C200.182 40.168 199.998 42.0333 200.356 43.8329C200.714 45.6324 201.598 47.2854 202.895 48.5828C204.192 49.8802 205.845 50.7637 207.644 51.1217C209.443 51.4796 211.308 51.2959 213.003 50.5938C214.698 49.8916 216.146 48.7026 217.166 47.177C218.185 45.6514 218.729 43.8578 218.729 42.023C218.726 39.5635 217.748 37.2055 216.009 35.4663C214.27 33.7272 211.913 32.7489 209.453 32.7461Z" fill="white"/>
<path d="M205.331 40.9922C206.185 40.9922 206.877 40.3 206.877 39.4461C206.877 38.5921 206.185 37.8999 205.331 37.8999C204.477 37.8999 203.785 38.5921 203.785 39.4461C203.785 40.3 204.477 40.9922 205.331 40.9922Z" fill="white"/>
<path d="M213.061 40.9922C213.914 40.9922 214.606 40.3 214.606 39.4461C214.606 38.5921 213.914 37.8999 213.061 37.8999C212.207 37.8999 211.515 38.5921 211.515 39.4461C211.515 40.3 212.207 40.9922 213.061 40.9922Z" fill="white"/>
<path d="M209.459 47.0555C208.073 47.0555 206.603 46.553 205.051 45.5479C204.936 45.4734 204.856 45.3566 204.828 45.223C204.799 45.0895 204.825 44.9501 204.899 44.8355C204.974 44.721 205.09 44.6406 205.224 44.612C205.357 44.5834 205.497 44.609 205.611 44.6832C208.343 46.4541 210.67 46.4669 212.727 44.7224C212.832 44.6343 212.967 44.5911 213.103 44.6024C213.239 44.6137 213.365 44.6786 213.453 44.7827C213.541 44.8869 213.585 45.0219 213.574 45.158C213.562 45.2941 213.498 45.4202 213.394 45.5086C212.178 46.5399 210.863 47.0555 209.459 47.0555Z" fill="white"/>
<path d="M226.458 59.0308H219.759V58.0003H225.428V52.3311H226.458V59.0308Z" fill="white"/>
<path d="M193.479 31.7152H192.448V25.0151H199.147V26.0459H193.479V31.7152Z" fill="white"/>
</g>
<g clip-path="url(#clip1_0_1)">
<path d="M117.92 128.592C118.74 131.88 117.643 134.965 115.47 135.483C113.297 136 110.871 133.755 110.051 130.466C109.705 129.157 109.689 127.784 110.006 126.463L106.713 112.489L113.557 111.093L116.076 125.017C116.979 126.048 117.611 127.274 117.92 128.592Z" fill="#FDADB0"/>
<path d="M89.2296 208.496L89.6512 217.655L89.229 220.189L90.7068 223.146L102.318 224.413L102.951 218.922L96.8291 215.754L96.6512 210.579L89.2296 208.496Z" fill="#FDADB0"/>
<path d="M101.474 222.301L100.841 223.146L88.6807 219.64C88.6807 219.64 89.2292 225.047 89.2292 226.103C89.2292 227.159 109.285 227.158 112.303 226.736C115.321 226.314 114.352 223.568 114.352 223.568L101.836 217.642L101.474 222.301Z" fill="#2F2E43"/>
<path d="M58.9781 201.754L56.4476 210.566L55.2368 212.832L55.691 216.107L66.2863 221.025L68.643 216.025L63.8561 211.064L66.8589 203.274L58.9781 201.754Z" fill="#FDADB0"/>
<path d="M66.1621 218.753L65.2918 219.351L54.8929 212.137C54.8929 212.137 53.6831 217.434 53.3453 218.435C53.0075 219.435 72.0086 225.856 75.003 226.422C77.9973 226.988 77.9575 224.077 77.9575 224.077L67.9962 214.455L66.1621 218.753Z" fill="#2F2E43"/>
<path d="M90.0481 57.2903L90.4915 64.4933L77.0464 65.1756L81.2099 55.6855L90.0481 57.2903Z" fill="#FDADB0"/>
<path d="M90.8348 63.416C87.231 65.024 81.4668 64.5841 74.9345 63.416L73.9136 108.689C73.9136 108.689 94.3476 112.799 101.373 105.216L97.6755 68.2249L90.8348 63.416Z" fill="#E0E1E2"/>
<path d="M99.1546 106.326L70.3069 109.178L56.0708 205.878H66.9791L85.6579 139.618L87.137 214.71H97.1208L105.626 122.787L99.1546 106.326Z" fill="#2F2E43"/>
<path d="M79.0356 60.6416L69.343 66.3795C65.6713 68.5531 63.9406 72.941 65.1394 77.0372L72.6304 102.632C72.6304 102.632 60.432 123.596 64.3958 125.446C73.3031 129.602 86.5946 128.59 86.5946 128.59L83.6239 78.3973L79.0356 60.6416Z" fill="#3F3D58"/>
<path d="M90.4136 63.2256L101.373 67.485L103.962 99.1124L111.21 124.591C98.9326 129.075 100.079 126.985 100.079 126.985L98.0452 83.0212L90.4136 63.2256Z" fill="#3F3D58"/>
<path d="M106.424 124.052L106.386 123.879L95.1832 72.0451C94.8702 70.5968 95.2705 69.145 96.2813 68.0619C97.2922 66.9785 98.7128 66.4796 100.179 66.6929C101.987 66.9558 103.435 68.2734 103.867 70.0497L116.172 120.649L106.424 124.052Z" fill="#3F3D58"/>
<path d="M84.2142 59.2038C90.2386 59.2038 95.1223 54.3183 95.1223 48.2916C95.1223 42.265 90.2386 37.3794 84.2142 37.3794C78.1899 37.3794 73.3062 42.265 73.3062 48.2916C73.3062 54.3183 78.1899 59.2038 84.2142 59.2038Z" fill="#FDADB0"/>
<path d="M89.4036 34.154C91.8063 34.9987 93.1811 35.4821 94.4405 36.6958C96.5677 38.746 96.9188 41.4857 97.245 44.0314C97.5002 46.0229 97.8302 48.5977 96.6644 51.5395C96.2666 52.5435 94.3368 57.0164 90.6431 57.5816C89.9177 57.6926 88.2146 57.7218 88.7055 57.3593C93.2486 54.0039 95.1875 51.9783 95.0285 46.8072C94.9298 43.5941 90.0219 40.125 87.1077 39.5014C85.8801 39.2387 84.2457 39.4787 83.0737 40.4412C80.6245 42.4527 80.7289 50.7707 78.1463 52.5095C77.0842 53.2246 77.7919 48.1909 77.0435 49.0072C75.5668 50.6178 76.514 53.0844 76.7794 54.0238C78.0381 58.4795 80.4111 58.9156 81.6405 62.7205C82.9679 66.8284 81.2973 70.696 80.9012 71.6131C80.2121 73.2086 79.0294 75.9467 76.3274 77.2603C72.8977 78.9276 70.1943 76.7564 68.5998 78.6178C67.7084 79.6584 68.1906 80.7604 66.5807 83.997C66.0552 85.0535 65.7924 85.5819 65.5598 85.5631C64.4589 85.4745 62.6766 76.6592 65.5592 68.4497C66.769 65.0044 67.9543 61.6289 71.1312 58.9894C72.8109 57.594 74.2196 57.0918 74.6205 55.4622C75.1934 53.1342 72.8147 52.1405 72.3379 48.4671C72.0118 45.9549 71.7831 42.362 72.6697 40.0591C73.507 37.8844 74.2338 35.9965 76.1363 34.2849C76.5933 33.8738 80.2818 31.0792 84.1927 31.0004C85.9932 30.9642 87.3161 33.42 89.4036 34.154Z" fill="#2F2E43"/>
<path d="M112.453 129.477C127.188 129.477 139.133 117.528 139.133 102.788C139.133 88.0475 127.188 76.0981 112.453 76.0981C97.7183 76.0981 85.7734 88.0475 85.7734 102.788C85.7734 117.528 97.7183 129.477 112.453 129.477Z" fill="#0077C8"/>
<path d="M105.702 120.2C107.321 114.356 108.941 108.511 110.561 102.667C110.905 101.423 111.172 100.041 111.961 98.9849C112.572 98.1685 113.531 97.6344 114.547 97.9701C116.969 98.7706 116.929 102.266 116.886 104.306C116.821 107.384 116.127 110.456 114.848 113.258C114.673 113.643 114.738 114.101 115.129 114.329C115.465 114.526 116.023 114.435 116.199 114.048C117.48 111.242 118.241 108.239 118.418 105.157C118.571 102.498 118.582 98.991 116.278 97.1787C115.152 96.2928 113.715 96.0297 112.394 96.642C111.09 97.247 110.293 98.4997 109.792 99.7968C109.235 101.239 108.903 102.786 108.491 104.274L107.162 109.069C106.172 112.641 105.182 116.213 104.193 119.784C103.923 120.756 105.433 121.171 105.702 120.2Z" fill="white"/>
<path d="M112.641 112.061C113.643 108.298 114.155 104.406 114.159 100.512C114.161 99.5046 112.596 99.503 112.594 100.512C112.59 104.274 112.1 108.009 111.132 111.645C110.872 112.619 112.382 113.035 112.641 112.061Z" fill="white"/>
<path d="M96.553 112.016C97.6018 106.957 98.737 101.882 100.193 96.9229C101.373 92.9016 103.408 88.3447 107.704 86.8867C109.837 86.1626 112.149 86.2793 114.333 86.6994C116.498 87.116 118.691 87.7361 120.686 88.6846C122.575 89.5824 124.323 90.8198 125.567 92.5245C126.794 94.2073 127.559 96.1603 127.971 98.1939C128.927 102.913 127.801 107.734 126.54 112.283C126.372 112.889 126.201 113.493 126.029 114.097C125.753 115.068 127.263 115.482 127.538 114.513C128.932 109.609 130.379 104.486 129.73 99.3395C129.449 97.1136 128.825 94.9269 127.713 92.9679C126.573 90.9604 124.928 89.3194 122.957 88.1267C120.969 86.9238 118.73 86.158 116.489 85.5833C114.108 84.9729 111.631 84.5971 109.179 84.9383C106.867 85.2599 104.784 86.3565 103.147 88.0123C101.469 89.7085 100.335 91.828 99.4981 94.0432C98.5751 96.4862 97.9723 99.0527 97.3373 101.582C96.6662 104.255 96.04 106.939 95.4593 109.634C95.3182 110.288 95.18 110.944 95.044 111.6C94.9583 112.013 95.1647 112.445 95.5905 112.562C95.9783 112.669 96.4668 112.432 96.553 112.016Z" fill="white"/>
<path d="M104.619 95.8329C105.839 92.1285 109.769 89.8351 113.573 90.0892C117.791 90.371 121.446 93.4521 122.927 97.3293C123.807 99.6332 124.065 102.169 123.695 104.607C123.632 105.024 123.8 105.448 124.242 105.57C124.611 105.671 125.14 105.443 125.204 105.023C125.943 100.15 124.585 94.841 120.751 91.546C118.954 90.001 116.753 88.9315 114.396 88.6113C112.129 88.3034 109.845 88.723 107.838 89.8268C105.637 91.0375 103.898 93.0221 103.11 95.4167C102.794 96.3758 104.304 96.7869 104.619 95.8329Z" fill="white"/>
<path d="M101.289 103.012C100.952 107.028 99.9407 110.999 98.3038 114.682C98.1322 115.068 98.1916 115.523 98.5845 115.753C98.9179 115.948 99.4825 115.861 99.655 115.472C101.412 111.519 102.493 107.324 102.853 103.012C102.889 102.59 102.469 102.229 102.071 102.229C101.618 102.229 101.324 102.589 101.289 103.012Z" fill="white"/>
<path d="M120.191 107.495C119.855 111.511 118.844 115.482 117.207 119.165C117.035 119.551 117.094 120.006 117.487 120.236C117.821 120.431 118.385 120.344 118.558 119.955C120.315 116.002 121.395 111.807 121.756 107.495C121.792 107.073 121.371 106.712 120.974 106.712C120.521 106.712 120.227 107.072 120.191 107.495Z" fill="white"/>
<path d="M105.226 104.38C106.232 100.388 107.9 96.605 110.162 93.1661C110.717 92.3221 109.362 91.5369 108.81 92.376C106.48 95.9181 104.753 99.8521 103.717 103.963C103.471 104.941 104.98 105.357 105.226 104.38Z" fill="white"/>
<path d="M0 226.495C0 226.701 0.16589 226.867 0.372468 226.867H228.628C228.834 226.867 229 226.701 229 226.495C229 226.288 228.834 226.122 228.628 226.122H0.372468C0.16589 226.122 0 226.288 0 226.495Z" fill="#3F3D58"/>
<path d="M89.9331 97.3444C93.3018 96.9898 96.2028 98.5063 96.4126 100.731C96.6224 102.956 94.0618 105.047 90.6919 105.401C89.3475 105.562 87.9867 105.386 86.7234 104.888L72.4325 106.204L72.0034 99.2301L86.1373 98.6739C87.2832 97.9227 88.5848 97.4668 89.9331 97.3444Z" fill="#FDADB0"/>
<path d="M72.5219 66.7102C69.0626 66.2228 65.8172 68.4982 65.0982 71.9181C62.5897 83.8496 58.0882 109.265 65.1583 109.689C74.4026 110.244 83.2771 108.025 83.2771 108.025L81.0585 95.263L73.8479 94.5231L78.0893 74.6768C78.8947 70.9085 76.3363 67.2476 72.5219 66.7102Z" fill="#3F3D58"/>
</g>
<defs>
<clipPath id="clip0_0_1">
<rect width="146" height="189" fill="white" transform="translate(166)"/>
</clipPath>
<clipPath id="clip1_0_1">
<rect width="229" height="196" fill="white" transform="translate(0 31)"/>
</clipPath>
</defs>
</svg>
