<?xml version="1.0" encoding="UTF-8"?>
<svg width="20px" height="20px" viewBox="0 0 20 20" version="1.1" xmlns="http://www.w3.org/2000/svg" xmlns:xlink="http://www.w3.org/1999/xlink">
    <title>vector-2</title>
    <g id="Page-1" stroke="none" stroke-width="1" fill="none" fill-rule="evenodd">
        <g id="vector-2">
            <path d="M10,0 C7.349,0 4.804,1.054 2.929,2.929 C1.054,4.804 0,7.349 0,10 C0,12.651 1.054,15.196 2.929,17.071 C4.804,18.946 7.349,20 10,20 C12.651,20 15.196,18.946 17.071,17.071 C18.946,15.196 20,12.651 20,10 C20,7.349 18.946,4.804 17.071,2.929 C15.196,1.054 12.651,0 10,0 Z" id="path"></path>
            <path d="M11,7 L9,7 L9,5 L11,5 M11,15 L9,15 L9,9 L11,9 M10,0 C7.349,0 4.804,1.054 2.929,2.929 C1.054,4.804 0,7.349 0,10 C0,12.651 1.054,15.196 2.929,17.071 C4.804,18.946 7.349,20 10,20 C12.651,20 15.196,18.946 17.071,17.071 C18.946,15.196 20,12.651 20,10 C20,7.349 18.946,4.804 17.071,2.929 C15.196,1.054 12.651,0 10,0 Z" id="path_1" fill="#FFFFFF" fill-rule="nonzero"></path>
        </g>
    </g>
</svg>